# xmcd CD database file
#
# Track frame offsets:
#	150
#	8967
#	22986
#	36933
#	53949
#	64813
#	78002
#	92346
#	105010
#	123297
#	136783
#	149151
#
# Disc length: 2197 seconds
#
# Revision: 0
# Processed by: cddbd v1.5.1PL2 Copyright (c) Steve Scherf et al.
# Submitted via: CDex 1.51
#
DISCID=8f08930c
DTITLE=Billy Bridge - Dad's Songbook
DYEAR=2006
DGENRE=Country
TTITLE0=Ain't She Sweet
TTITLE1=Dream A Little Dream Of Me
TTITLE2=Don't Get Around Much Anymore
TTITLE3=5 Foot 2, Eyes Of blue (Medley)
TTITLE4=Sweet Gypsy Rose
TTITLE5=Fallen Way To Deep In Love
TTITLE6=When You're Smiling
TTITLE7=On The Sunny Side Of The Street
TTITLE8=My Happiness (With Rebecca Lee Nye)
TTITLE9=When I Grow Too Old To Dream
TTITLE10=From A Jack To A King (With Steve Bridge)
TTITLE11=Lullaby (Jordy's Song)
EXTD=YEAR: 2006
EXTT0=
EXTT1=
EXTT2=
EXTT3=
EXTT4=
EXTT5=
EXTT6=
EXTT7=
EXTT8=
EXTT9=
EXTT10=
EXTT11=
PLAYORDER=
